# xmcd CD database file
#
# Track frame offsets:
#	150
#	13986
#	26224
#	39992
#	55033
#	68328
#	77367
#	107079
#	155224
#	169695
#
# Disc length: 2530 seconds
#
# Revision: 0
# Processed by: cddbd v1.5.2PL0 Copyright (c) Steve Scherf et al.
# Submitted via: CDex 1.51
#
DISCID=7409e00a
DTITLE=Joe Turner - The Real Boss Of The Blues
DYEAR=2014
DGENRE=Blues
TTITLE0=Shake, Rattle And Roll
TTITLE1=Lonesome Train
TTITLE2=Corrine, Corrina
TTITLE3=How Long, How Long Blues
TTITLE4=Careless Love
TTITLE5=Two Loves Have I
TTITLE6=Honey Hush
TTITLE7=Plastic Man
TTITLE8=Honey Hush ( Live )
TTITLE9=Yakety Yak ( Live )
EXTD=YEAR: 2014
EXTT0=
EXTT1=
EXTT2=
EXTT3=
EXTT4=
EXTT5=
EXTT6=
EXTT7=
EXTT8=
EXTT9=
PLAYORDER=
